<svg xmlns="http://www.w3.org/2000/svg" viewBox="0 0 315.03 116"><g data-name="Camada 2"><g data-name="Camada 1"><path fill="#1e1e1e" d="M110.54 0 98.85 36.05 87.16 0H46.2v74.42h31.44V46.83l10.43 27.59h21.63l9.8-27.52v27.52h17.36l13.79-37.25V0h-40.11zM204.77 0h-39.28L151 37.38v37h18.13l2.66-7.14h26.54l2.52 7.07h32.27Zm-25.2 45 5.32-14.84L190.21 45ZM252.72 0l14.07 40.81L281 0h34l-28.54 74.42h-39.2L218.84 0Z"/><path fill="#8ffffc" d="M28.56 74.42V0L0 74.42Z"/><path d="M28.56 74.42V0L19 65Z" opacity=".33"/><path d="M28.56 74.42 19 65 0 74.42Z" opacity=".25" style="isolation:isolate"/><path fill="#1e1e1e" d="M12.18 109.7H4.06l-2.17 6H0l7.28-19.44H9.1l7.21 19.39h-1.89Zm-7.56-1.61h7L8.19 98.5h-.07ZM32.83 115.86c-5.25 0-8.68-4.06-8.68-10.08s3.36-9.94 8.68-9.94c4.06 0 7.21 2.45 7.91 6.16h-1.89a6 6 0 0 0-6-4.41c-4.2 0-6.86 3.15-6.86 8.19s2.66 8.4 6.86 8.4c3.78 0 6.23-2.38 6.23-6v-.7H33v-1.61h7.84v1.82c.04 5.16-2.97 8.17-8.01 8.17ZM63.15 115.65h-11.7V96.26h11.7v1.68H53.2v7h9.39v1.68H53.2V114h9.95ZM58 90.8l3.85 4h-1.78l-2.74-2.94-2.73 2.93h-1.82l3.85-4ZM73.3 115.65V96.26h1.82l11.41 16.17h.07V96.26h1.82v19.39H86.6L75.19 99.48h-.07v16.17ZM98.78 105.85c0-6.09 3.36-9.94 8.61-9.94a7.58 7.58 0 0 1 7.84 6.44h-1.82a5.93 5.93 0 0 0-6-4.76c-4.06 0-6.79 3.22-6.79 8.26s2.59 8.33 6.79 8.33c3.08 0 5.46-1.68 6-4.34h1.82c-.7 3.78-3.64 6-7.84 6-5.18.02-8.61-3.9-8.61-9.99ZM125.45 115.65V96.26h1.82v19.39ZM149.11 109.7H141l-2.17 6h-1.89l7.28-19.39H146l7.21 19.39h-1.89Zm-7.63-1.61h7l-3.43-9.59H145ZM186.71 96.4c5.81 0 9.17 3.57 9.17 9.66s-3.36 9.73-9.17 9.73h-6.37V96.4Zm-4.55 17.71h4.41c4.76 0 7.42-2.87 7.42-8s-2.66-8-7.42-8h-4.41ZM206.24 115.72V96.33h1.82v19.39ZM227.24 116c-5.25 0-8.68-4.06-8.68-10.08s3.36-9.92 8.68-9.92c4.06 0 7.21 2.45 7.91 6.16h-1.89a6 6 0 0 0-6-4.41c-4.2 0-6.86 3.15-6.86 8.19s2.66 8.4 6.86 8.4c3.78 0 6.23-2.38 6.23-6v-.7h-6V106h7.84v1.82c-.04 5.18-3.05 8.18-8.09 8.18ZM245.79 115.72V96.33h1.82v19.39ZM263.78 115.72V98h-6.51v-1.67h14.84V98h-6.51v17.71ZM289.83 109.77h-8.13l-2.17 6h-1.89l7.28-19.39h1.82l7.26 19.34h-1.89Zm-7.57-1.54h7l-3.43-9.59h-.07ZM315 115.72h-11.52V96.33h1.82v17.78h9.7v1.61Z"/></g></g></svg>