<svg xmlns="http://www.w3.org/2000/svg" width="315.03" height="116" viewBox="0 0 315.03 116">
  <g id="Camada_2" data-name="Camada 2">
    <g id="Camada_1-2" data-name="Camada 1">
      <g>
        <g>
          <polygon points="110.54 0 98.85 36.05 87.16 0 46.2 0 46.2 74.42 77.64 74.42 77.64 46.83 88.07 74.42 109.7 74.42 119.5 46.9 119.5 74.42 136.86 74.42 150.65 37.17 150.65 0 110.54 0" style="fill: #1e1e1e"/>
          <path d="M204.77,0H165.49L151,37.38v37h18.13l2.66-7.14h26.54l2.52,7.07h32.27Zm-25.2,45,5.32-14.84L190.21,45Z" style="fill: #1e1e1e"/>
          <path d="M252.72,0l14.07,40.81L281,0h34L286.46,74.42h-39.2L218.84,0Z" style="fill: #1e1e1e"/>
          <path d="M28.56,74.42V0L0,74.42Z" style="fill: #8ffffc"/>
          <g style="opacity: 0.330000013113022">
            <path d="M28.56,74.42V0L19,65Z"/>
          </g>
          <path d="M28.56,74.42,19,65,0,74.42Z" style="isolation: isolate;opacity: 0.25"/>
        </g>
        <path d="M12.18,109.7H4.06l-2.17,6H0L7.28,96.26H9.1l7.21,19.39H14.42Zm-7.56-1.61h7L8.19,98.5H8.12Z" style="fill: #1e1e1e"/>
        <path d="M32.83,115.86c-5.25,0-8.68-4.06-8.68-10.08s3.36-9.94,8.68-9.94c4.06,0,7.21,2.45,7.91,6.16H38.85a6,6,0,0,0-6-4.41c-4.2,0-6.86,3.15-6.86,8.19s2.66,8.4,6.86,8.4c3.78,0,6.23-2.38,6.23-6v-.7H33v-1.61h7.84v1.82C40.88,112.85,37.87,115.86,32.83,115.86Z" style="fill: #1e1e1e"/>
        <path d="M63.15,115.65H51.45V96.26h11.7v1.68H53.2v7h9.39v1.68H53.2V114h9.95ZM58,90.8l3.85,4H60.07l-2.74-2.94h0L54.6,94.79H52.78l3.85-4Z" style="fill: #1e1e1e"/>
        <path d="M73.3,115.65V96.26h1.82l11.41,16.17h.07V96.26h1.82v19.39H86.6L75.19,99.48h-.07v16.17Z" style="fill: #1e1e1e"/>
        <path d="M98.78,105.85c0-6.09,3.36-9.94,8.61-9.94a7.58,7.58,0,0,1,7.84,6.44h-1.82a5.93,5.93,0,0,0-6-4.76c-4.06,0-6.79,3.22-6.79,8.26s2.59,8.33,6.79,8.33c3.08,0,5.46-1.68,6-4.34h1.82c-.7,3.78-3.64,6-7.84,6C102.21,115.86,98.78,111.94,98.78,105.85Z" style="fill: #1e1e1e"/>
        <path d="M125.45,115.65V96.26h1.82v19.39Z" style="fill: #1e1e1e"/>
        <path d="M149.11,109.7H141l-2.17,6h-1.89l7.28-19.39H146l7.21,19.39h-1.89Zm-7.63-1.61h7l-3.43-9.59H145Z" style="fill: #1e1e1e"/>
        <path d="M186.71,96.4c5.81,0,9.17,3.57,9.17,9.66s-3.36,9.73-9.17,9.73h-6.37V96.4Zm-4.55,17.71h4.41c4.76,0,7.42-2.87,7.42-8s-2.66-8-7.42-8h-4.41Z" style="fill: #1e1e1e"/>
        <path d="M206.24,115.72V96.33h1.82v19.39Z" style="fill: #1e1e1e"/>
        <path d="M227.24,116c-5.25,0-8.68-4.06-8.68-10.08S221.92,96,227.24,96c4.06,0,7.21,2.45,7.91,6.16h-1.89a6,6,0,0,0-6-4.41c-4.2,0-6.86,3.15-6.86,8.19s2.66,8.4,6.86,8.4c3.78,0,6.23-2.38,6.23-6v-.7h-6V106h7.84v1.82C235.29,113,232.28,116,227.24,116Z" style="fill: #1e1e1e"/>
        <path d="M245.79,115.72V96.33h1.82v19.39Z" style="fill: #1e1e1e"/>
        <path d="M263.78,115.72V98h-6.51V96.33h14.84V98H265.6v17.71Z" style="fill: #1e1e1e"/>
        <path d="M289.83,109.77H281.7l-2.17,6h-1.89l7.28-19.39h1.82L294,115.72h-1.89Zm-7.57-1.54h7l-3.43-9.59h-.07Z" style="fill: #1e1e1e"/>
        <path d="M315,115.72H303.48V96.33h1.82v17.78H315v1.61Z" style="fill: #1e1e1e"/>
      </g>
    </g>
  </g>
</svg>
