<?xml version="1.0" encoding="utf-8"?>
<!-- Generator: Adobe Illustrator 27.5.0, SVG Export Plug-In . SVG Version: 6.00 Build 0)  -->
<svg version="1.1" id="Camada_2_00000102502575908613346880000015684634074713453449_"
	 xmlns="http://www.w3.org/2000/svg" xmlns:xlink="http://www.w3.org/1999/xlink" x="0px" y="0px" viewBox="0 0 1199.7 169.6"
	 style="enable-background:new 0 0 1199.7 169.6;" xml:space="preserve">
<style type="text/css">
	.st0{fill:#FFFFFF;}
	.st1{fill:#00FFF2;}
	.st2{fill:#007787;}
	.st3{fill:#003F47;}
</style>
<g id="Camada_3">
	<g>
		<polygon class="st0" points="251.9,0 225.3,82.2 198.6,0 105.3,0 105.3,169.6 176.9,169.6 176.9,106.7 200.7,169.6 250,169.6 
			272.4,106.9 272.4,169.6 311.9,169.6 343.4,84.7 343.4,0 		"/>
		<path class="st0" d="M466.7,0h-89.5l-33,85.2v84.4h41.3l6.1-16.3H452l5.7,16.1h73.6L466.7,0z M409.3,102.6l12.1-33.8l12.1,33.8
			H409.3L409.3,102.6z"/>
		<path class="st0" d="M576,0l32.1,93l32.4-93H718l-65.1,169.6h-89.3L498.8,0H576L576,0z"/>
		<g>
			<path class="st1" d="M43.5,147.8L65.1,0L0,169.6L43.5,147.8L43.5,147.8z"/>
			<path class="st2" d="M65.1,169.6V0L43.4,148.1L65.1,169.6L65.1,169.6z"/>
			<path class="st3" d="M65.1,169.6l-21.7-21.5L0,169.6H65.1z"/>
		</g>
	</g>
</g>
<g>
	<g>
		<path class="st0" d="M793.5,54.7H770l-6.3,17.4h-5.5l21.1-56.2h5.3l20.9,56.1h-5.5L793.5,54.7z M771.6,50.1h20.3l-9.9-27.7h-0.2
			L771.6,50.1z"/>
		<path class="st0" d="M853.2,72.5c-15.2,0-25.1-11.7-25.1-29.2s9.7-28.8,25.1-28.8c11.7,0,20.9,7.1,22.9,17.8h-5.5
			c-2.1-7.8-9.3-13-17.4-12.8c-12.2,0-19.8,9.1-19.8,23.7s7.7,24.3,19.8,24.3c10.9,0,18-6.9,18-17.4v-2h-17.6v-4.7h22.7v5.3
			C876.5,63.8,867.8,72.5,853.2,72.5z"/>
		<path class="st0" d="M940.9,71.9h-33.9V15.8h33.9v4.9h-28.8v20.3h27.2v4.9h-27.2v21.4h28.8V71.9z M926,0l11.1,11.6H932l-7.9-8.5
			l0,0l-7.9,8.5h-5.3L922.1,0L926,0z"/>
		<path class="st0" d="M970.3,71.9V15.8h5.3l33,46.8h0.2V15.8h5.3v56.1h-5.3l-33-46.8h-0.2v46.8H970.3z"/>
		<path class="st0" d="M1044,43.6c0-17.6,9.7-28.8,24.9-28.8c11.2-0.5,21,7.5,22.7,18.6h-5.3c-1.6-8.2-9-14-17.4-13.8
			c-11.7,0-19.6,9.3-19.6,23.9s7.5,24.1,19.6,24.1c8.9,0,15.8-4.9,17.4-12.6h5.3c-2,10.9-10.5,17.4-22.7,17.4
			C1054,72.5,1044,61.2,1044,43.6z"/>
		<path class="st0" d="M1121.2,71.9V15.8h5.3v56.1H1121.2z"/>
		<path class="st0" d="M1189.7,54.7h-23.5l-6.3,17.4h-5.5l21.1-56.1h5.2l20.9,56.1h-5.5L1189.7,54.7z M1167.6,50.1h20.3l-9.9-27.7
			h-0.1L1167.6,50.1z"/>
	</g>
	<g>
		<path class="st0" d="M775.5,100.5c15.8,0,24.9,9.7,24.9,26.3s-9.1,26.5-24.9,26.5h-17.3v-52.7H775.5z M763.2,148.6h12
			c12.9,0,20.2-7.8,20.2-21.8s-7.2-21.8-20.2-21.8h-12V148.6z"/>
		<path class="st0" d="M828.7,153v-52.7h5V153H828.7z"/>
		<path class="st0" d="M885.8,153.8c-14.3,0-23.6-11-23.6-27.4s9.1-27,23.6-27c11,0,19.6,6.7,21.5,16.8h-5.1
			c-2-7.3-8.8-12.3-16.3-12c-11.4,0-18.7,8.6-18.7,22.3s7.2,22.8,18.7,22.8c10.3,0,16.9-6.5,16.9-16.3V131h-16.3v-4.5h21.3v5
			C907.7,145.6,899.5,153.8,885.8,153.8z"/>
		<path class="st0" d="M936.2,153v-52.7h5V153H936.2z"/>
		<path class="st0" d="M985.2,153v-48.2h-17.7v-4.5h40.4v4.5h-17.7V153L985.2,153z"/>
		<path class="st0" d="M1056,136.8h-22.1l-5.9,16.3h-5.1l19.8-52.7h5l19.7,52.6h-5.1L1056,136.8z M1035.5,132.6h19l-9.3-26.1h-0.2
			L1035.5,132.6z"/>
		<path class="st0" d="M1124.5,153h-31.3v-52.7h5v48.4h26.4V153z"/>
	</g>
</g>
</svg>
